<?xml version="1.0" encoding="utf-8"?>
<!-- Generator: Adobe Illustrator 25.2.1, SVG Export Plug-In . SVG Version: 6.00 Build 0)  -->
<svg version="1.1" id="Ebene_2_1_" xmlns="http://www.w3.org/2000/svg" xmlns:xlink="http://www.w3.org/1999/xlink" x="0px" y="0px"
	 width="1019px" height="226.8px" viewBox="0 0 1019 226.8" style="enable-background:new 0 0 1019 226.8;" xml:space="preserve">
<style type="text/css">
	.st0{fill:#179F35;}
	.st1{fill:#006DB5;}
	.st2{fill:#B51A26;}
	.st3{fill:#AFAFAF;}
</style>
<g>
	<path class="st0" d="M248.3,112c6.3,0.4,11,5.8,10.6,12.1s-5.8,11-12.1,10.6c-6.3-0.4-11-5.8-10.6-12.1
		C236.6,116.3,242,111.6,248.3,112"/>
	<path class="st1" d="M193.8,160.9c9.6,0.6,16.9,8.9,16.3,18.5s-8.9,16.9-18.5,16.3c-9.6-0.6-16.9-8.9-16.3-18.5
		C175.9,167.5,184.2,160.2,193.8,160.9"/>
	<path class="st2" d="M145,130.9c14.2,0.9,25,13.2,24.1,27.4s-13.2,25-27.4,24.1s-25-13.2-24.1-27.4
		C118.5,140.8,130.8,130,145,130.9"/>
	<path class="st3" d="M289.4,142.7c-16.2,60.5-78.4,96.4-138.8,80.2c-37-9.9-64.8-37.1-77.1-70.6c12.9,29.8,39.2,53.8,73.7,63
		c58.8,15.8,118.9-17.7,134.2-74.8s-20-116.1-78.9-131.9c-34.4-9.2-69.3-1.6-95.3,17.8C134.6,3.6,172.2-6,209.3,3.9
		C269.7,20.1,305.6,82.3,289.4,142.7 M217.2,124c-8.3-0.5-15.6,5.8-16.1,14.2s5.8,15.6,14.2,16.1s15.6-5.8,16.1-14.2
		C231.9,131.8,225.6,124.5,217.2,124"/>
	<path d="M43.2,72.5c-1.2-3.3-2.9-6-5.3-8.2c-2.3-2.2-5.1-3.9-8.5-5s-7.5-1.7-12.3-1.7H3.3c-0.9,0-1.7,0.3-2.3,0.8
		c-0.7,0.5-1,1.4-1,2.6v47.2c0,1.2,0.3,2.1,0.9,2.7s1.4,0.8,2.3,0.8h12.9c4.8,0,8.9-0.5,12.4-1.6s6.4-2.7,8.9-4.9
		c2.4-2.2,4.3-5.1,5.6-8.6s1.9-7.8,1.9-12.7C45,79.6,44.4,75.8,43.2,72.5 M32.6,92.4c-0.7,2.4-1.7,4.3-3.1,5.9s-3.1,2.8-5.2,3.5
		c-2.1,0.8-4.6,1.2-7.6,1.2H11V66.2h5.6c3.4,0,6.1,0.5,8.2,1.4s3.8,2.2,5.1,3.8c1.3,1.6,2.3,3.5,2.9,5.7s0.9,4.6,0.9,7.1
		C33.6,87.4,33.3,90.1,32.6,92.4 M85.1,89.8c-0.7-1.6-1.5-3-2.6-4.2s-2.3-2.2-3.7-3.1c-1.4-0.9-2.8-1.6-4.3-2.3
		c-1.5-0.7-2.9-1.3-4.3-1.9s-2.6-1.2-3.8-1.9c-1.1-0.7-2-1.5-2.6-2.3c-0.7-0.9-1-1.9-1-3.1c0-0.8,0.1-1.6,0.4-2.3
		c0.3-0.7,0.7-1.4,1.3-1.9c0.6-0.5,1.4-0.9,2.2-1.2c0.9-0.3,1.9-0.4,3.1-0.4c1.5,0,2.9,0.2,4.2,0.6s2.4,0.8,3.4,1.3s1.8,0.9,2.5,1.3
		s1.2,0.6,1.5,0.6s0.5-0.1,0.7-0.3s0.3-0.4,0.4-0.8s0.2-0.8,0.2-1.4s0.1-1.2,0.1-2.1c0-0.7,0-1.3,0-1.8s-0.1-0.9-0.1-1.2
		c-0.1-0.3-0.2-0.6-0.3-0.8c-0.1-0.2-0.3-0.4-0.6-0.7c-0.3-0.3-0.9-0.6-1.7-1c-0.9-0.4-1.9-0.8-3-1.1s-2.3-0.6-3.6-0.8
		c-1.3-0.2-2.6-0.3-3.8-0.3c-2.5,0-4.8,0.3-7.1,1c-2.2,0.6-4.1,1.6-5.8,2.9s-2.9,2.9-3.9,4.9s-1.4,4.2-1.4,6.8c0,2.3,0.3,4.2,1,5.8
		c0.7,1.6,1.5,3,2.6,4.2s2.3,2.2,3.7,3.1s2.8,1.6,4.2,2.3c1.4,0.7,2.9,1.3,4.2,1.9c1.4,0.6,2.6,1.2,3.7,1.9c1.1,0.7,1.9,1.5,2.6,2.3
		c0.7,0.9,1,1.9,1,3.2c0,1.1-0.2,2-0.6,2.9s-1,1.6-1.7,2.2s-1.6,1-2.7,1.4c-1.1,0.3-2.3,0.5-3.6,0.5c-2,0-3.8-0.2-5.4-0.7
		c-1.5-0.5-2.9-1-4-1.5c-1.1-0.6-2-1.1-2.7-1.5c-0.7-0.5-1.3-0.7-1.7-0.7c-0.3,0-0.5,0.1-0.7,0.2c-0.2,0.2-0.4,0.4-0.5,0.8
		s-0.2,0.8-0.3,1.4s-0.1,1.3-0.1,2.2c0,1.3,0.1,2.3,0.2,2.9c0.2,0.7,0.4,1.2,0.8,1.6c0.4,0.4,1,0.8,1.8,1.3s1.9,0.9,3.1,1.4
		s2.6,0.8,4.3,1.1c1.6,0.3,3.3,0.5,5.2,0.5c2.8,0,5.4-0.4,7.8-1.1s4.5-1.8,6.4-3.2c1.8-1.4,3.3-3.2,4.3-5.4c1.1-2.2,1.6-4.6,1.6-7.5
		C86.1,93.3,85.8,91.4,85.1,89.8 M157.7,62c0-0.7-0.1-1.3-0.3-1.9c-0.2-0.5-0.4-1-0.8-1.4c-0.4-0.4-0.8-0.7-1.3-0.9
		s-1.2-0.3-1.9-0.3H146c-1,0-1.9,0.1-2.7,0.3s-1.5,0.6-2,1.1c-0.6,0.5-1.1,1.2-1.5,2s-0.8,1.8-1.2,3l-12.1,32.2h-0.2l-11.7-32.3
		c-0.3-1.2-0.7-2.2-1.2-2.9c-0.4-0.8-1-1.4-1.7-1.9s-1.5-0.8-2.4-1s-2-0.3-3.3-0.3h-7.2c-1.3,0-2.3,0.4-3,1.1
		c-0.8,0.8-1.1,1.8-1.1,3.3v48.3c0,0.3,0.1,0.5,0.2,0.8c0.2,0.2,0.4,0.4,0.8,0.5s0.9,0.2,1.6,0.3c0.7,0.1,1.5,0.1,2.5,0.1
		s1.9,0,2.5-0.1s1.2-0.2,1.6-0.3c0.4-0.1,0.7-0.3,0.9-0.5c0.2-0.2,0.2-0.5,0.2-0.8V66.2h0.1l15.2,44c0.1,0.3,0.3,0.6,0.5,0.8
		c0.3,0.2,0.6,0.4,1,0.6s1,0.3,1.6,0.3c0.7,0.1,1.5,0.1,2.4,0.1s1.8,0,2.4-0.1c0.7,0,1.2-0.1,1.7-0.3c0.4-0.1,0.8-0.3,1-0.6
		c0.3-0.2,0.4-0.5,0.5-0.9l15.7-44h0.1v44.1c0,0.3,0.1,0.5,0.3,0.8c0.2,0.2,0.4,0.4,0.8,0.5c0.4,0.1,0.9,0.2,1.6,0.3
		s1.5,0.1,2.5,0.1s1.9,0,2.5-0.1c0.7-0.1,1.2-0.2,1.6-0.3c0.4-0.1,0.7-0.3,0.8-0.5c0.2-0.2,0.2-0.5,0.2-0.8L157.7,62L157.7,62z
		 M202.3,103.9c-0.3-0.7-0.7-1-1.2-1h-22.6L199.2,70c0.5-0.8,0.9-1.4,1.2-2c0.3-0.5,0.5-1.1,0.7-1.6s0.3-1,0.4-1.6
		c0.1-0.5,0.1-1.2,0.1-1.9v-2.1c0-1.1-0.3-1.9-0.8-2.5s-1.4-0.9-2.5-0.9h-29.9c-0.3,0-0.6,0.1-0.9,0.2c-0.2,0.1-0.4,0.4-0.6,0.7
		c-0.2,0.3-0.3,0.8-0.3,1.4c-0.1,0.6-0.1,1.3-0.1,2.1s0,1.5,0.1,2c0.1,0.6,0.2,1,0.3,1.3s0.3,0.6,0.6,0.7c0.2,0.1,0.5,0.2,0.9,0.2
		h20.8l-21,33.3c-0.5,0.8-0.9,1.5-1.2,2c-0.3,0.6-0.6,1.1-0.7,1.5c-0.2,0.5-0.3,0.9-0.4,1.4c-0.1,0.5-0.1,1-0.1,1.5v1.8
		c0,1.2,0.3,2.2,0.9,2.8s1.5,1,2.6,1h31.9c0.2,0,0.5-0.1,0.7-0.2s0.4-0.4,0.5-0.7s0.2-0.8,0.3-1.4s0.1-1.2,0.1-2
		C202.8,105.7,202.6,104.6,202.3,103.9"/>
</g>
<g>
	<path d="M407.2,144.7c0,1.4,0,2.5-0.1,3.5s-0.2,1.8-0.4,2.5c-0.2,0.7-0.4,1.3-0.7,1.8c-0.3,0.5-0.7,1.1-1.3,1.7
		c-0.6,0.6-1.8,1.4-3.5,2.4s-3.9,1.9-6.4,2.9c-2.5,0.9-5.4,1.7-8.6,2.3s-6.7,0.9-10.5,0.9c-7.3,0-13.9-1.1-19.8-3.4
		c-5.9-2.3-10.9-5.6-15-10.1s-7.3-10.1-9.5-16.8s-3.3-14.5-3.3-23.5c0-9.1,1.2-17.2,3.6-24.2c2.4-7.1,5.8-13,10.2-17.8
		c4.4-4.8,9.6-8.4,15.7-10.9s12.8-3.7,20.1-3.7c3,0,5.8,0.2,8.6,0.7c2.8,0.5,5.3,1.1,7.6,1.9c2.3,0.8,4.4,1.7,6.3,2.8
		c1.9,1,3.2,1.9,3.9,2.7c0.7,0.7,1.3,1.4,1.5,1.9c0.3,0.5,0.5,1.1,0.7,1.9s0.3,1.7,0.4,2.7s0.1,2.3,0.1,3.9c0,1.7-0.1,3.1-0.2,4.2
		c-0.1,1.2-0.3,2.1-0.6,2.8c-0.3,0.7-0.6,1.2-1,1.6c-0.4,0.3-0.8,0.5-1.3,0.5c-0.8,0-1.9-0.5-3.1-1.4c-1.3-1-2.9-2-4.9-3.2
		s-4.4-2.3-7.2-3.2c-2.8-1-6.1-1.4-10-1.4c-4.2,0-8,0.9-11.4,2.6c-3.3,1.7-6.2,4.2-8.5,7.4c-2.3,3.2-4.1,7.1-5.3,11.7
		c-1.2,4.6-1.8,9.7-1.8,15.5c0,6.3,0.6,11.7,1.9,16.3s3.1,8.4,5.5,11.4s5.3,5.2,8.7,6.7c3.4,1.5,7.2,2.2,11.4,2.2
		c3.9,0,7.2-0.5,10-1.4s5.2-1.9,7.2-3s3.7-2.1,5-3s2.3-1.3,3-1.3c0.5,0,1,0.1,1.3,0.3s0.6,0.7,0.8,1.3c0.2,0.7,0.4,1.6,0.5,2.8
		C407.2,141.1,407.2,142.7,407.2,144.7z"/>
	<path d="M484.4,158.3c0,0.8-0.3,1.4-0.8,1.8c-0.6,0.4-1.4,0.8-2.6,1s-2.9,0.3-5.2,0.3c-2.5,0-4.3-0.1-5.4-0.3s-1.9-0.5-2.4-1
		c-0.5-0.4-0.7-1-0.7-1.8v-5.9c-3,3.3-6.5,5.8-10.4,7.6s-8.2,2.7-12.9,2.7c-3.9,0-7.5-0.5-10.8-1.5s-6.1-2.5-8.5-4.5
		s-4.3-4.5-5.6-7.5c-1.3-3-2-6.4-2-10.4c0-4.3,0.8-8,2.5-11.2s4.2-5.8,7.5-7.9s7.5-3.6,12.4-4.6c5-1,10.7-1.5,17.3-1.5h7.2v-4.5
		c0-2.3-0.2-4.3-0.7-6.1c-0.5-1.7-1.2-3.2-2.3-4.3c-1.1-1.2-2.5-2-4.3-2.6c-1.8-0.5-4-0.8-6.7-0.8c-3.5,0-6.6,0.4-9.3,1.2
		c-2.7,0.8-5.1,1.6-7.2,2.6c-2.1,0.9-3.8,1.8-5.2,2.6c-1.4,0.8-2.5,1.2-3.4,1.2c-0.6,0-1.1-0.2-1.6-0.6s-0.9-0.9-1.2-1.7
		c-0.3-0.7-0.5-1.6-0.7-2.6s-0.2-2.2-0.2-3.5c0-1.7,0.1-3.1,0.4-4c0.3-1,0.8-1.9,1.6-2.7c0.8-0.8,2.1-1.7,4-2.6
		c1.9-1,4.2-1.9,6.8-2.7c2.6-0.8,5.4-1.5,8.5-2s6.2-0.8,9.5-0.8c5.8,0,10.7,0.6,14.8,1.7c4.1,1.1,7.5,2.9,10.1,5.2
		c2.6,2.3,4.6,5.4,5.8,9c1.2,3.7,1.8,8.1,1.8,13.1L484.4,158.3L484.4,158.3z M464,126.7h-7.9c-3.4,0-6.2,0.2-8.6,0.7
		s-4.3,1.2-5.8,2.2s-2.6,2.2-3.3,3.6c-0.7,1.4-1,3-1,4.8c0,3.1,1,5.5,2.9,7.3c2,1.8,4.7,2.6,8.1,2.6c2.9,0,5.6-0.7,8.1-2.2
		s4.9-3.7,7.5-6.5L464,126.7L464,126.7z"/>
	<path d="M547.2,150.8c0,2.4-0.2,4.3-0.5,5.6s-0.7,2.2-1.2,2.7s-1.2,1-2.2,1.4s-2.1,0.8-3.4,1.1c-1.3,0.3-2.7,0.5-4.2,0.7
		s-3,0.2-4.6,0.2c-4.1,0-7.7-0.5-10.7-1.6c-3-1-5.5-2.7-7.5-4.8c-2-2.2-3.4-4.9-4.4-8.2c-0.9-3.3-1.4-7.2-1.4-11.7V98.4h-8.8
		c-1,0-1.8-0.6-2.4-1.9s-0.8-3.5-0.8-6.5c0-1.6,0.1-2.9,0.2-4s0.3-2,0.6-2.6c0.3-0.6,0.6-1.1,1-1.4s0.9-0.4,1.4-0.4h8.8V65.1
		c0-0.5,0.2-1,0.5-1.5c0.3-0.4,0.9-0.8,1.7-1.1c0.8-0.3,1.9-0.5,3.2-0.7c1.3-0.1,3-0.2,5-0.2s3.7,0.1,5.1,0.2
		c1.3,0.1,2.4,0.4,3.2,0.7s1.3,0.7,1.7,1.1c0.3,0.4,0.5,0.9,0.5,1.5v16.4h16c0.6,0,1,0.1,1.4,0.4s0.8,0.7,1,1.4
		c0.3,0.6,0.5,1.5,0.6,2.6s0.2,2.5,0.2,4c0,3-0.3,5.2-0.8,6.5c-0.6,1.3-1.4,1.9-2.4,1.9h-16.1V133c0,4,0.6,7,1.9,9
		c1.3,2,3.5,3,6.8,3c1.1,0,2.1-0.1,3-0.3s1.7-0.4,2.4-0.7c0.7-0.2,1.3-0.5,1.7-0.7c0.5-0.2,0.9-0.3,1.3-0.3c0.3,0,0.6,0.1,1,0.3
		c0.3,0.2,0.5,0.6,0.7,1.2c0.2,0.6,0.3,1.4,0.5,2.4C547.1,148,547.2,149.2,547.2,150.8z"/>
	<path d="M623.4,158.3c0,0.8-0.3,1.4-0.8,1.8c-0.6,0.4-1.4,0.8-2.6,1c-1.2,0.2-2.9,0.3-5.2,0.3c-2.5,0-4.3-0.1-5.4-0.3
		c-1.1-0.2-1.9-0.5-2.4-1c-0.5-0.4-0.7-1-0.7-1.8v-5.9c-3,3.3-6.5,5.8-10.4,7.6s-8.2,2.7-12.9,2.7c-3.9,0-7.5-0.5-10.8-1.5
		s-6.1-2.5-8.5-4.5s-4.3-4.5-5.6-7.5s-2-6.4-2-10.4c0-4.3,0.8-8,2.5-11.2s4.2-5.8,7.5-7.9s7.5-3.6,12.4-4.6c5-1,10.7-1.5,17.3-1.5
		h7.2v-4.5c0-2.3-0.2-4.3-0.7-6.1c-0.5-1.7-1.2-3.2-2.3-4.3c-1.1-1.2-2.5-2-4.3-2.6c-1.8-0.5-4-0.8-6.7-0.8c-3.5,0-6.6,0.4-9.3,1.2
		c-2.7,0.8-5.1,1.6-7.2,2.6c-2.1,0.9-3.8,1.8-5.2,2.6c-1.4,0.8-2.5,1.2-3.4,1.2c-0.6,0-1.1-0.2-1.6-0.6s-0.9-0.9-1.2-1.7
		c-0.3-0.7-0.5-1.6-0.7-2.6s-0.2-2.2-0.2-3.5c0-1.7,0.1-3.1,0.4-4c0.3-1,0.8-1.9,1.6-2.7c0.8-0.8,2.1-1.7,4-2.6
		c1.9-1,4.2-1.9,6.8-2.7c2.6-0.8,5.4-1.5,8.5-2s6.2-0.8,9.5-0.8c5.8,0,10.7,0.6,14.8,1.7s7.5,2.9,10.1,5.2c2.6,2.3,4.6,5.4,5.8,9
		c1.2,3.7,1.8,8.1,1.8,13.1L623.4,158.3L623.4,158.3z M603,126.7h-7.9c-3.4,0-6.2,0.2-8.6,0.7c-2.4,0.5-4.3,1.2-5.8,2.2
		s-2.6,2.2-3.3,3.6c-0.7,1.4-1,3-1,4.8c0,3.1,1,5.5,2.9,7.3c2,1.8,4.7,2.6,8.1,2.6c2.9,0,5.6-0.7,8.1-2.2s4.9-3.7,7.5-6.5V126.7z"/>
	<path d="M665,158c0,0.6-0.2,1-0.5,1.4s-0.9,0.8-1.7,1c-0.8,0.3-1.9,0.5-3.2,0.6s-3,0.2-5,0.2s-3.7-0.1-5-0.2
		c-1.3-0.1-2.4-0.3-3.2-0.6s-1.4-0.6-1.7-1s-0.5-0.9-0.5-1.4V49.4c0-0.6,0.2-1,0.5-1.5c0.3-0.4,0.9-0.8,1.7-1.1s1.9-0.5,3.2-0.7
		s3-0.2,5-0.2s3.7,0.1,5,0.2c1.3,0.2,2.4,0.4,3.2,0.7s1.4,0.7,1.7,1.1c0.3,0.4,0.5,0.9,0.5,1.5V158z"/>
	<path d="M760.3,120.4c0,6.3-0.8,12-2.5,17.2c-1.7,5.2-4.2,9.6-7.5,13.4c-3.4,3.7-7.6,6.6-12.6,8.7c-5.1,2-11,3.1-17.8,3.1
		c-6.6,0-12.3-0.9-17.1-2.7s-8.9-4.5-12.1-7.9c-3.2-3.5-5.6-7.7-7.1-12.8s-2.3-10.9-2.3-17.4c0-6.3,0.8-12,2.5-17.2
		c1.7-5.2,4.2-9.7,7.6-13.4c3.4-3.7,7.6-6.6,12.6-8.6s11-3.1,17.7-3.1c6.6,0,12.3,0.9,17.2,2.7c4.8,1.8,8.9,4.4,12,7.9
		c3.2,3.5,5.5,7.7,7.1,12.8C759.5,108.1,760.3,113.9,760.3,120.4z M738.9,121.3c0-3.6-0.3-7-0.9-10s-1.6-5.7-2.9-8
		c-1.4-2.3-3.2-4-5.5-5.3s-5.2-1.9-8.6-1.9c-3.1,0-5.8,0.6-8.1,1.7s-4.2,2.8-5.7,5s-2.6,4.8-3.3,7.9s-1.1,6.5-1.1,10.5
		c0,3.6,0.3,7,0.9,10c0.6,3.1,1.6,5.7,2.9,8c1.3,2.3,3.2,4,5.5,5.2s5.2,1.9,8.6,1.9c3.1,0,5.9-0.6,8.2-1.7c2.3-1.1,4.2-2.8,5.7-4.9
		c1.5-2.1,2.6-4.8,3.3-7.8S738.9,125.2,738.9,121.3z"/>
	<path d="M843.2,89.4c0,2.6-0.3,4.6-0.9,5.9c-0.6,1.3-1.4,1.9-2.2,1.9h-8.7c1.2,1.3,2.1,2.8,2.6,4.5s0.8,3.4,0.8,5.2
		c0,4.3-0.7,8.1-2.1,11.4c-1.4,3.3-3.5,6.1-6.2,8.4c-2.7,2.3-5.9,4-9.7,5.2s-8,1.8-12.6,1.8c-2.4,0-4.6-0.3-6.8-0.9
		c-2.1-0.6-3.8-1.3-5-2c-0.7,0.7-1.3,1.6-1.8,2.6s-0.8,2.1-0.8,3.3c0,1.6,0.7,2.9,2.1,3.9c1.4,1,3.4,1.6,5.9,1.7l17.9,0.7
		c4.2,0.2,7.9,0.8,11.2,1.8s6,2.5,8.3,4.3c2.2,1.8,3.9,4.1,5.1,6.7c1.2,2.6,1.8,5.5,1.8,8.8c0,3.6-0.8,7.1-2.4,10.3
		c-1.6,3.2-4,6-7.2,8.4s-7.2,4.2-12,5.6c-4.8,1.4-10.5,2.1-16.9,2.1c-6.3,0-11.6-0.5-16.1-1.5c-4.4-1-8.1-2.4-10.9-4.1
		c-2.8-1.8-4.9-3.9-6.2-6.3c-1.3-2.5-1.9-5.1-1.9-8.1c0-1.8,0.2-3.6,0.7-5.2c0.5-1.7,1.2-3.2,2.1-4.8s2-3,3.3-4.3
		c1.3-1.4,2.8-2.7,4.5-4c-2.4-1.3-4.2-3-5.5-5.2s-1.9-4.6-1.9-7.1c0-3.3,0.7-6.2,2.2-8.9s3.4-5.1,5.8-7.2c-1.9-1.9-3.5-4.2-4.6-6.9
		c-1.2-2.7-1.7-6.1-1.7-10.1c0-4.3,0.8-8.1,2.3-11.5s3.6-6.3,6.3-8.6c2.7-2.3,5.9-4.1,9.7-5.4c3.7-1.2,7.9-1.9,12.4-1.9
		c2.3,0,4.5,0.1,6.7,0.4c2.1,0.3,4.1,0.7,5.9,1.2H840c0.9,0,1.7,0.6,2.3,1.8C842.9,84.5,843.2,86.6,843.2,89.4z M821.3,165.7
		c0-2.5-1-4.4-3-5.7s-4.7-2-8.2-2.1l-14.8-0.4c-1.4,1-2.6,2.1-3.4,3c-0.9,1-1.5,1.9-2.1,2.8c-0.5,0.9-0.9,1.7-1,2.6
		c-0.2,0.8-0.2,1.7-0.2,2.6c0,2.8,1.4,4.8,4.2,6.3c2.8,1.4,6.7,2.1,11.8,2.1c3.1,0,5.8-0.3,7.9-1c2.1-0.6,3.9-1.5,5.2-2.5
		s2.3-2.2,2.8-3.5C821.1,168.5,821.3,167.2,821.3,165.7z M816.5,106.9c0-4-1.1-7.1-3.3-9.3c-2.2-2.2-5.3-3.3-9.3-3.3
		c-2,0-3.8,0.3-5.4,1c-1.5,0.7-2.8,1.6-3.8,2.8c-1,1.2-1.8,2.6-2.3,4.1c-0.5,1.6-0.7,3.2-0.7,4.9c0,3.7,1.1,6.7,3.3,8.9
		c2.2,2.2,5.3,3.3,9.2,3.3c2.1,0,3.9-0.3,5.5-1c1.5-0.7,2.8-1.6,3.8-2.7c1-1.2,1.8-2.5,2.3-4C816.2,110.1,816.5,108.5,816.5,106.9z"
		/>
	<path d="M926.9,158c0,0.6-0.1,1-0.4,1.4c-0.3,0.4-0.8,0.8-1.4,1c-0.7,0.3-1.6,0.5-2.7,0.6c-1.1,0.1-2.5,0.2-4.3,0.2
		s-3.3-0.1-4.4-0.2c-1.1-0.1-2-0.3-2.7-0.6s-1.1-0.6-1.4-1c-0.3-0.4-0.4-0.9-0.4-1.4v-8.5c-4.1,4.4-8.2,7.7-12.4,9.9
		s-8.6,3.3-13.1,3.3c-5.1,0-9.3-0.8-12.8-2.5c-3.4-1.7-6.2-3.9-8.3-6.8c-2.1-2.9-3.6-6.2-4.5-10s-1.4-8.5-1.4-14.1v-45
		c0-0.6,0.2-1,0.5-1.4s0.9-0.8,1.7-1c0.8-0.3,1.9-0.5,3.2-0.6s3-0.2,5-0.2s3.7,0.1,5,0.2s2.4,0.3,3.2,0.6c0.8,0.3,1.4,0.6,1.7,1
		s0.5,0.9,0.5,1.4V126c0,3.9,0.2,6.8,0.7,8.8s1.3,3.8,2.3,5.2c1,1.5,2.3,2.6,3.9,3.4c1.6,0.8,3.4,1.2,5.5,1.2c2.6,0,5.3-1,8-2.9
		s5.5-4.7,8.6-8.4v-49c0-0.6,0.2-1,0.5-1.4s0.9-0.8,1.7-1c0.8-0.3,1.9-0.5,3.2-0.6s3-0.2,5-0.2s3.7,0.1,5,0.2s2.4,0.3,3.1,0.6
		c0.8,0.3,1.3,0.6,1.7,1c0.3,0.4,0.5,0.9,0.5,1.4V158H926.9z"/>
	<path d="M1015.9,119c0,2.5-0.6,4.4-1.7,5.6c-1.1,1.2-2.7,1.8-4.7,1.8h-44.9c0,3.1,0.4,6,1.1,8.6c0.7,2.6,1.9,4.7,3.6,6.5
		c1.6,1.8,3.7,3.2,6.3,4.1c2.6,0.9,5.6,1.4,9.2,1.4c3.6,0,6.8-0.3,9.6-0.8s5.1-1.1,7.1-1.7c2-0.6,3.7-1.2,5-1.7s2.4-0.8,3.2-0.8
		c0.5,0,0.9,0.1,1.2,0.3s0.6,0.5,0.8,1s0.4,1.2,0.5,2.1s0.1,2.1,0.1,3.4c0,1.2,0,2.2-0.1,3.1c-0.1,0.9-0.1,1.6-0.2,2.2
		c-0.1,0.6-0.3,1.1-0.5,1.5s-0.5,0.8-0.9,1.2s-1.3,0.9-2.9,1.6c-1.6,0.7-3.6,1.3-6.1,1.9c-2.5,0.6-5.3,1.2-8.5,1.7
		s-6.6,0.7-10.2,0.7c-6.6,0-12.3-0.8-17.2-2.5s-9-4.2-12.4-7.5c-3.3-3.4-5.8-7.6-7.4-12.7c-1.6-5.1-2.4-11.1-2.4-18
		c0-6.6,0.9-12.5,2.6-17.7c1.7-5.3,4.2-9.7,7.4-13.4c3.3-3.7,7.2-6.5,11.9-8.4s9.9-2.9,15.7-2.9c6.2,0,11.4,0.9,15.8,2.7
		c4.4,1.8,8,4.3,10.8,7.6s4.9,7,6.2,11.4s2,9.2,2,14.4L1015.9,119L1015.9,119z M995.7,113.1c0.2-5.8-1-10.4-3.5-13.8
		c-2.5-3.3-6.4-5-11.6-5c-2.6,0-4.9,0.5-6.9,1.5s-3.6,2.3-4.9,4c-1.3,1.7-2.3,3.7-3,6s-1.1,4.7-1.2,7.3H995.7z"/>
</g>
</svg>
