<?xml version="1.0" encoding="UTF-8"?><svg xmlns="http://www.w3.org/2000/svg" xmlns:xlink="http://www.w3.org/1999/xlink" viewBox="0 0 460.53 442.98"><defs><clipPath id="clippath"><path d="m334.15,179.01l-15.31,2.78-21.28,3.87-27.87,5.07c-2.25.41-4.4-1.08-4.81-3.33l-6.12-33.65c-.4-2.25,1.09-4.4,3.33-4.81l16.21-2.95,23.58-4.28,24.67-4.49c2.25-.41,4.4,1.08,4.81,3.33l6.12,33.65c.41,2.25-1.08,4.4-3.33,4.81Z" style="fill:#80cff5; stroke:#000; stroke-linecap:round; stroke-linejoin:round;"/></clipPath></defs><g id="Background_Simple"><path d="m49.94,137.97s-27.88,71.99,11.3,144.5c39.17,72.52,119.88,110.8,184.47,143.55,64.59,32.75,131.66,16.8,163.53-36.84,31.87-53.64-11.85-91.93-11.9-168.42-.05-76.49,11.45-96.74-29.96-161.36C325.97-5.22,224.32-19.52,147.48,28.41c-76.84,47.93-97.54,109.56-97.54,109.56Z" style="fill:#fff; opacity:.7; stroke-width:0px;"/><path d="m217.13,6.61c124.04-11.05,124.24,58.93,180.13,124.13,55.89,65.19,67.85,94.75,46.78,169.91-21.07,75.15-92.06,134.07-179.89,100.69-87.83-33.38-138.14-1.32-193.54-30.97-55.4-29.64-75.97-86.91-35.42-154.41C75.74,148.46,64.19,20.23,217.13,6.61Z" style="fill:#83d0f5; stroke-width:0px;"/><path d="m217.13,6.61c124.04-11.05,124.24,58.93,180.13,124.13,55.89,65.19,67.85,94.75,46.78,169.91-21.07,75.15-92.06,134.07-179.89,100.69-87.83-33.38-138.14-1.32-193.54-30.97-55.4-29.64-75.97-86.91-35.42-154.41C75.74,148.46,64.19,20.23,217.13,6.61Z" style="fill:#83d0f5; opacity:.7; stroke-width:0px;"/></g><g id="Document"><rect x="119.26" y="46.56" width="196.11" height="272.62" transform="translate(-18.88 25.14) rotate(-6.35)" style="fill:#fff; stroke:#263238; stroke-linecap:round; stroke-linejoin:round;"/><rect x="106.27" y="47.28" width="196.11" height="37.72" transform="translate(-6.06 22.99) rotate(-6.35)" style="fill:#bfbfbf; stroke:#263238; stroke-linecap:round; stroke-linejoin:round;"/><path d="m245.55,53.81l-84.14,9.36c-1.58.18-2.72,1.6-2.54,3.18s1.6,2.72,3.18,2.54l84.14-9.36c1.58-.18,2.72-1.6,2.54-3.18-.18-1.58-1.6-2.72-3.18-2.54Z" style="fill:#fff; stroke-width:0px;"/><path d="m225.82,67.9l-42.07,4.68c-.79.09-1.36.8-1.27,1.59.09.79.8,1.36,1.59,1.27l42.07-4.68c.79-.09,1.36-.8,1.27-1.59-.09-.79-.8-1.36-1.59-1.27Z" style="fill:#fff; stroke-width:0px;"/><path d="m257.26,100.31l-110.22,12.26c-.59.07-1.01.59-.95,1.18.07.59.59,1.01,1.18.95l110.22-12.26c.59-.07,1.01-.59.95-1.18s-.59-1.01-1.18-.95Z" style="opacity:.3; stroke-width:0px;"/><path d="m258.11,107.96l-126.76,14.1c-.59.07-1.01.59-.95,1.18.07.59.59,1.01,1.18.95l126.76-14.1c.59-.07,1.01-.59.95-1.18s-.59-1.01-1.18-.95Z" style="opacity:.3; stroke-width:0px;"/><path d="m225.87,119.29l-93.68,10.42c-.59.07-1.01.59-.95,1.18.07.59.59,1.01,1.18.95l93.68-10.42c.59-.07,1.01-.59.95-1.18-.07-.59-.59-1.01-1.18-.95Z" style="opacity:.3; stroke-width:0px;"/><rect x="272.18" y="96.82" width="16.73" height="16.73" rx="2.74" ry="2.74" transform="translate(-9.91 31.66) rotate(-6.35)" style="fill:none; opacity:.3; stroke:#263238; stroke-linecap:round; stroke-linejoin:round;"/><polyline points="276.02 104.83 279.69 108.3 284.54 100.89" style="fill:none; stroke:#83d0f5; stroke-linecap:round; stroke-linejoin:round; stroke-width:3px;"/><path d="m261.29,136.54l-110.22,12.26c-.59.07-1.01.59-.95,1.18.07.59.59,1.01,1.18.95l110.22-12.26c.59-.07,1.01-.59.95-1.18-.07-.59-.59-1.01-1.18-.95Z" style="opacity:.3; stroke-width:0px;"/><path d="m262.14,144.2l-126.76,14.1c-.59.07-1.01.59-.95,1.18s.59,1.01,1.18.95l126.76-14.1c.59-.07,1.01-.59.95-1.18-.07-.59-.59-1.01-1.18-.95Z" style="opacity:.3; stroke-width:0px;"/><path d="m229.9,155.53l-93.68,10.42c-.59.07-1.01.59-.95,1.18.07.59.59,1.01,1.18.95l93.68-10.42c.59-.07,1.01-.59.95-1.18-.07-.59-.59-1.01-1.18-.95Z" style="opacity:.3; stroke-width:0px;"/><rect x="276.21" y="133.06" width="16.73" height="16.73" rx="2.74" ry="2.74" transform="translate(-13.89 32.33) rotate(-6.35)" style="fill:none; opacity:.3; stroke:#263238; stroke-linecap:round; stroke-linejoin:round;"/><polyline points="280.05 141.07 283.72 144.54 288.57 137.13" style="fill:none; stroke:#83d0f5; stroke-linecap:round; stroke-linejoin:round; stroke-width:3px;"/><path d="m265.32,172.78l-110.22,12.26c-.59.07-1.01.59-.95,1.18.07.59.59,1.01,1.18.95l110.22-12.26c.59-.07,1.01-.59.95-1.18-.07-.59-.59-1.01-1.18-.95Z" style="opacity:.3; stroke-width:0px;"/><path d="m266.17,180.43l-126.76,14.1c-.59.07-1.01.59-.95,1.18s.59,1.01,1.18.95l126.76-14.1c.59-.07,1.01-.59.95-1.18-.07-.59-.59-1.01-1.18-.95Z" style="opacity:.3; stroke-width:0px;"/><path d="m233.93,191.77l-93.68,10.42c-.59.07-1.01.59-.95,1.18s.59,1.01,1.18.95l93.68-10.42c.59-.07,1.01-.59.95-1.18s-.59-1.01-1.18-.95Z" style="opacity:.3; stroke-width:0px;"/><rect x="280.24" y="169.3" width="16.73" height="16.73" rx="2.74" ry="2.74" transform="translate(-17.87 32.99) rotate(-6.35)" style="fill:none; opacity:.3; stroke:#263238; stroke-linecap:round; stroke-linejoin:round;"/><polyline points="284.08 177.31 287.75 180.78 292.6 173.37" style="fill:none; stroke:#83d0f5; stroke-linecap:round; stroke-linejoin:round; stroke-width:3px;"/><path d="m269.35,209.02l-110.22,12.26c-.59.07-1.01.59-.95,1.18.07.59.59,1.01,1.18.95l110.22-12.26c.59-.07,1.01-.59.95-1.18-.07-.59-.59-1.01-1.18-.95Z" style="opacity:.3; stroke-width:0px;"/><path d="m270.2,216.67l-126.76,14.1c-.59.07-1.01.59-.95,1.18.07.59.59,1.01,1.18.95l126.76-14.1c.59-.07,1.01-.59.95-1.18-.07-.59-.59-1.01-1.18-.95Z" style="opacity:.3; stroke-width:0px;"/><path d="m237.96,228l-93.68,10.42c-.59.07-1.01.59-.95,1.18.07.59.59,1.01,1.18.95l93.68-10.42c.59-.07,1.01-.59.95-1.18-.07-.59-.59-1.01-1.18-.95Z" style="opacity:.3; stroke-width:0px;"/><rect x="284.27" y="205.54" width="16.73" height="16.73" rx="2.74" ry="2.74" transform="translate(-21.85 33.66) rotate(-6.35)" style="fill:none; opacity:.3; stroke:#263238; stroke-linecap:round; stroke-linejoin:round;"/><polyline points="288.11 213.55 291.78 217.02 296.63 209.61" style="fill:none; stroke:#83d0f5; stroke-linecap:round; stroke-linejoin:round; stroke-width:3px;"/><path d="m273.38,245.26l-110.22,12.26c-.59.07-1.01.59-.95,1.18.07.59.59,1.01,1.18.95l110.22-12.26c.59-.07,1.01-.59.95-1.18-.07-.59-.59-1.01-1.18-.95Z" style="opacity:.3; stroke-width:0px;"/><path d="m274.23,252.91l-126.76,14.1c-.59.07-1.01.59-.95,1.18.07.59.59,1.01,1.18.95l126.76-14.1c.59-.07,1.01-.59.95-1.18-.07-.59-.59-1.01-1.18-.95Z" style="opacity:.3; stroke-width:0px;"/><path d="m241.99,264.24l-93.68,10.42c-.59.07-1.01.59-.95,1.18.07.59.59,1.01,1.18.95l93.68-10.42c.59-.07,1.01-.59.95-1.18-.07-.59-.59-1.01-1.18-.95Z" style="opacity:.3; stroke-width:0px;"/><rect x="288.3" y="241.78" width="16.73" height="16.73" rx="2.74" ry="2.74" transform="translate(-25.84 34.33) rotate(-6.35)" style="fill:none; opacity:.3; stroke:#263238; stroke-linecap:round; stroke-linejoin:round;"/><polyline points="292.14 249.79 295.81 253.26 300.66 245.85" style="fill:none; stroke:#83d0f5; stroke-linecap:round; stroke-linejoin:round; stroke-width:3px;"/><path d="m276.46,272.91l-110.22,12.26c-.59.07-1.01.59-.95,1.18.07.59.59,1.01,1.18.95l110.22-12.26c.59-.07,1.01-.59.95-1.18-.07-.59-.59-1.01-1.18-.95Z" style="opacity:.3; stroke-width:0px;"/><path d="m277.31,280.56l-126.76,14.1c-.59.07-1.01.59-.95,1.18.07.59.59,1.01,1.18.95l126.76-14.1c.59-.07,1.01-.59.95-1.18-.07-.59-.59-1.01-1.18-.95Z" style="opacity:.3; stroke-width:0px;"/><path d="m245.07,291.89l-93.68,10.42c-.59.07-1.01.59-.95,1.18.07.59.59,1.01,1.18.95l93.68-10.42c.59-.07,1.01-.59.95-1.18-.07-.59-.59-1.01-1.18-.95Z" style="opacity:.3; stroke-width:0px;"/><rect x="291.37" y="269.43" width="16.73" height="16.73" rx="2.74" ry="2.74" transform="translate(-28.87 34.84) rotate(-6.35)" style="fill:none; opacity:.3; stroke:#263238; stroke-linecap:round; stroke-linejoin:round;"/><polyline points="295.22 277.44 298.89 280.91 303.74 273.5" style="fill:none; stroke:#83d0f5; stroke-linecap:round; stroke-linejoin:round; stroke-width:3px;"/></g><g id="Stamp"><path d="m207.73,174.12c-.66-1.17-1.32-1.29-2.14-.83l-1.22.69,3.15,5.55,1.22-.69c.82-.46,1.05-1.09.39-2.26l-1.39-2.46Z" style="fill:none; stroke-width:0px;"/><path d="m184.82,202.15c.13-.99-.12-2.09-.79-3.27l-1.23-2.18-2.43,1.38,1.33,2.34c.66,1.17.39,1.88-.43,2.35-.82.46-1.57.34-2.24-.84l-2.87-5.06c-1.02.2-2.04.4-3.06.6l3.26,5.75c1.49,2.62,3.65,3.38,6.18,1.94.44-.25.79-.53,1.11-.83-.32-.6-.06-1.48.53-1.9.2-.14.42-.23.65-.3Z" style="fill:#83d0f5; stroke-width:0px;"/><path d="m171.52,194.72l.58,1.02c1.13-.02,2.25-.03,3.38-.05l-1.47-2.6c-.66-1.17-.4-1.91.42-2.37.82-.46,1.59-.31,2.25.86l1,1.76,2.43-1.38-.9-1.59c-1.49-2.62-3.65-3.38-6.18-1.94-.64.36-1.15.78-1.53,1.24.77.19,1.53.34,1.78.25-.8.3-1.6.6-2.4.9-.38,1.14-.18,2.46.64,3.91Z" style="fill:#83d0f5; stroke-width:0px;"/><path d="m190.2,184.06c.3-.2.68-.25,1.01-.4,1.29-.58,1.58-2.43,1.47-3.74l-1.33-1.66-3.58,2.03,2.24,3.94c.05-.07.12-.13.19-.18Z" style="fill:#83d0f5; stroke-width:0px;"/><path d="m205.45,191.93l2.43-1.38-9.29-16.39-2.3,1.31c.74.17,1.27.52,1.29,1.07-.72.1-1.6,0-2.38.14l4.68,12.13-.05.03-5.91-7.38c0,.35-.08.68-.36.87-.27.19-.66.18-.88.43-.19.22-.18.55-.35.77-.17.22-.46.28-.69.44-.3.21-.46.57-.7.84-.11.13-.28.22-.44.27l6.58,11.6,2.25-1.27-6.57-11.59.05-.03,8.45,10.53,2.43-1.38-4.93-12.73.05-.03,6.67,11.75Z" style="fill:#83d0f5; stroke-width:0px;"/><path d="m211.61,177.63c.36.13.57.48.74.88.25-1.05,0-2.24-.75-3.56l-1.21-2.13c-1.49-2.62-3.56-3.33-6.14-1.87l-3.79,2.15,9.29,16.39,2.42-1.37c-.78-.49-1.65-.91-2.4-1.44-.33-.24-.65-.52-.82-.89-.17-.37-.16-.85.12-1.15.31-.33.8-.32,1.24-.17l-1.47-2.6,1.22-.69c.76-.43,1.32-.93,1.71-1.48-.51-.82-1.4-2.54-.16-2.07Zm-2.88,1.21l-1.22.69-3.15-5.55,1.22-.69c.82-.46,1.48-.34,2.14.83l1.39,2.46c.66,1.17.43,1.8-.39,2.26Z" style="fill:#83d0f5; stroke-width:0px;"/><path d="m225.4,180.62l-1.33-2.34-4.24,2.4-6.2-10.93c-.09.08-.18.15-.27.22-.2.15-.4.31-.65.35-.24.04-.53-.08-.59-.32-.04-.15.03-.31.06-.47.16-.84-.38-1.71-.84-2.59l-2.05,1.16,9.29,16.39,6.81-3.86Z" style="fill:#83d0f5; stroke-width:0px;"/><path d="m224.24,174.93c.28-.74,1.15-1.05,1.64-1.67.05-.06.09-.14.13-.2l-.95-1.68,2.53-1.43c-.04-.14-.11-.28-.24-.43-.17-.18-1.15-.36-1.15-.36-.29-.49.11-1.22.67-1.25.17,0,.37.03.5-.08.11-.09.12-.24.13-.39l-.23-.41-3.53,2.01-2.59-4.56,4.45-2.52-1.33-2.34-7.02,3.98,6.88,12.13c.02-.27.03-.54.13-.79Z" style="fill:#83d0f5; stroke-width:0px;"/><path d="m233.55,175.99l-1.33-2.34-4.45,2.52-1.33-2.35c-.55.51-1.09,1.03-1.64,1.54-.19.18-.39.37-.57.56l2.3,4.05,7.02-3.98Z" style="fill:#83d0f5; stroke-width:0px;"/><path d="m230.24,156.97c-.04.35-.25.73-.59.77-.17.02-.33-.05-.5-.08-.31-.05-.64.03-.92-.09-.07-.03-.13-.07-.18-.11l-2.94,1.67,1.33,2.34,2.69-1.53,7.97,14.05,2.57-1.46-7.97-14.05,2.69-1.53-1.33-2.34-2.76,1.56c-.05.26-.03.53-.06.79Z" style="fill:#83d0f5; stroke-width:0px;"/><path d="m241.47,166.83l2,3.53,2.7-1.53c.07-.17.15-.34.24-.51.52-.91,1.45-1.5,2.34-2.06.41-.26.83-.52,1.24-.77l-.82-1.45-4.45,2.52-2.72-4.8,3.53-2.01-1.33-2.34-3.53,2.01-2.59-4.56,4.45-2.52-1.33-2.34-7.02,3.98,5.05,8.91c1.23-.6,1.85,1.74,2.24,3.94Z" style="fill:#83d0f5; stroke-width:0px;"/><path d="m189.68,199.24c.42.08.67.49.98.77.13.11.26.2.41.27.19-.08.37-.15.56-.26,2.53-1.43,3.06-3.72,1.57-6.34l-.15-.26c-1.15-.03-2.31-.07-3.46-.1l1.12,1.98c.66,1.17.4,1.91-.42,2.37-.82.46-1.59.31-2.25-.86l-5.02-8.85c-.66-1.17-.4-1.91.42-2.37.82-.46,1.59-.31,2.25.86l3.4,5.99c1.04-.25,2.11-.39,3.18-.39l-3.91-6.89c-1.49-2.62-3.72-3.34-6.25-1.9-2.53,1.43-3.06,3.72-1.57,6.34l4.83,8.52c.87,1.53,2,2.39,3.28,2.57-.01-.06-.03-.12-.04-.18-.05-.63.42-1.39,1.05-1.27Z" style="fill:#83d0f5; stroke-width:0px;"/><path d="m224.21,152.22l7.85-4.45c-2.25.62-4.23,2.5-6.55,2.24-.43-.05-.89-.17-1.28.02-.56.27-.69,1.07-.42,1.63.1.21.25.39.41.56Z" style="fill:#83d0f5; stroke-width:0px;"/><path d="m204.52,163.39c-.01-.18.01-.35.1-.51.2.08.4.11.6.11l2.71-1.54c.45-.46.89-.93,1.44-1.25.5-.3,1.06-.47,1.62-.64.2-.06.4-.12.6-.18l4.98-2.82c.06-.1.12-.2.21-.27.07-.06.16-.08.25-.12-1.72-.52-3.44-1.04-5.17-1.56l-1.39.79c-.05.37-.1.73-.15,1.1-1.99,1.06-3.97,2.12-5.96,3.18-.61.33-1.24.66-1.92.73-.26.03-.51,0-.77-.02l-8.48,4.81c.07.4.18.8.34,1.17-.5-.09-.97-.29-1.39-.57l-1.74.99c1.24.82,2.46,1.67,3.65,2.55l10.46-5.93Z" style="fill:#83d0f5; stroke-width:0px;"/><path d="m240.81,142.8c-1.36-.77-2.73-1.53-4.09-2.3l-1.94,1.1c1.13,1.15,2.6,1.95,4.19,2.25l1.85-1.05Z" style="fill:#83d0f5; stroke-width:0px;"/><path d="m262.87,167.02l-15.48-27.29c-1.25-2.2-4.05-2.98-6.25-1.73l-1.86,1.06c.24.23.47.46.71.7.75.73,1.5,1.48,2.2,2.28l.94-.53c.27-.15.62-.06.78.21l15.48,27.29c.15.27.06.62-.21.78l-21.07,11.95c1.82.11,3.66-.15,5.48.06.65.07,1.3.21,1.95.35l15.62-8.86c2.2-1.25,2.98-4.05,1.73-6.25Z" style="fill:#83d0f5; stroke-width:0px;"/><path d="m168.02,201.74l-7.29-12.86c-.15-.27-.06-.62.21-.78l21.02-11.92c-.07-.16-.16-.31-.23-.48.3-.02.6.03.89.1l8.48-4.81c-.28-.1-.55-.2-.82-.31-1.33-.53-2.66-1.06-3.99-1.58l-3.2,1.81c1.16.71,2.32,1.42,3.47,2.13-1.2-.74-3.68-.84-5.8-.81l-21.81,12.37c-2.2,1.25-2.98,4.05-1.73,6.25l6.32,11.14c.3-.07.59-.14.88-.2.8-.14,1.61-.13,2.42-.12.39,0,.78.01,1.17.06Z" style="fill:#83d0f5; stroke-width:0px;"/><path d="m193.94,206.77c.36.31.76.59,1.2.77.45.19,1.05.68.7,1.03-1.62.74-3.61.19-5.21.98-.87.43-1.71,1.25-2.64,1,1.12.67,2.13,1.54,2.99,2.53l39.71-22.52c.03-.16.06-.32.08-.48.09-.53.2-1.09.57-1.48.49-.52,1.29-.56,2.01-.57.51,0,1.05.01,1.54.15l4.94-2.8c-.67-1.18-1.48-2.26-2.4-3.26l-43.49,24.67Z" style="fill:#83d0f5; stroke-width:0px;"/><path d="m187.52,213.38c-.83-.27-1.91-.83-2.6-1.5l-7.95,4.51c-.27.15-.62.06-.77-.21l-6.96-12.27c-.7-.16-1.4-.38-2.1-.24-.8.16-1.51,1.1-1.07,1.79.83,0,1.65.5,2.02,1.24-.44.34-.91.62-1.4.85l6.02,10.61c1.25,2.2,4.05,2.98,6.25,1.73l10.39-5.89s-.08-.05-.13-.07c-.54-.25-1.14-.36-1.7-.55Z" style="fill:#83d0f5; stroke-width:0px;"/><g style="opacity:.2;"><path d="m184.82,202.15c.13-.99-.12-2.09-.79-3.27l-1.23-2.18-2.43,1.38,1.33,2.34c.66,1.17.39,1.88-.43,2.35-.82.46-1.57.34-2.24-.84l-2.87-5.06c-1.02.2-2.04.4-3.06.6l3.26,5.75c1.49,2.62,3.65,3.38,6.18,1.94.44-.25.79-.53,1.11-.83-.32-.6-.06-1.48.53-1.9.2-.14.42-.23.65-.3Z" style="stroke-width:0px;"/><path d="m171.52,194.72l.58,1.02c1.13-.02,2.25-.03,3.38-.05l-1.47-2.6c-.66-1.17-.4-1.91.42-2.37.82-.46,1.59-.31,2.25.86l1,1.76,2.43-1.38-.9-1.59c-1.49-2.62-3.65-3.38-6.18-1.94-.64.36-1.15.78-1.53,1.24.77.19,1.53.34,1.78.25-.8.3-1.6.6-2.4.9-.38,1.14-.18,2.46.64,3.91Z" style="stroke-width:0px;"/><path d="m190.2,184.06c.3-.2.68-.25,1.01-.4,1.29-.58,1.58-2.43,1.47-3.74l-1.33-1.66-3.58,2.03,2.24,3.94c.05-.07.12-.13.19-.18Z" style="stroke-width:0px;"/><path d="m205.45,191.93l2.43-1.38-9.29-16.39-2.3,1.31c.74.17,1.27.52,1.29,1.07-.72.1-1.6,0-2.38.14l4.68,12.13-.05.03-5.91-7.38c0,.35-.08.68-.36.87-.27.19-.66.18-.88.43-.19.22-.18.55-.35.77-.17.22-.46.28-.69.44-.3.21-.46.57-.7.84-.11.13-.28.22-.44.27l6.58,11.6,2.25-1.27-6.57-11.59.05-.03,8.45,10.53,2.43-1.38-4.93-12.73.05-.03,6.67,11.75Z" style="stroke-width:0px;"/><path d="m211.61,177.63c.36.13.57.48.74.88.25-1.05,0-2.24-.75-3.56l-1.21-2.13c-1.49-2.62-3.56-3.33-6.14-1.87l-3.79,2.15,9.29,16.39,2.42-1.37c-.78-.49-1.65-.91-2.4-1.44-.33-.24-.65-.52-.82-.89-.17-.37-.16-.85.12-1.15.31-.33.8-.32,1.24-.17l-1.47-2.6,1.22-.69c.76-.43,1.32-.93,1.71-1.48-.51-.82-1.4-2.54-.16-2.07Zm-2.88,1.21l-1.22.69-3.15-5.55,1.22-.69c.82-.46,1.48-.34,2.14.83l1.39,2.46c.66,1.17.43,1.8-.39,2.26Z" style="stroke-width:0px;"/><path d="m225.4,180.62l-1.33-2.34-4.24,2.4-6.2-10.93c-.09.08-.18.15-.27.22-.2.15-.4.31-.65.35-.24.04-.53-.08-.59-.32-.04-.15.03-.31.06-.47.16-.84-.38-1.71-.84-2.59l-2.05,1.16,9.29,16.39,6.81-3.86Z" style="stroke-width:0px;"/><path d="m224.24,174.93c.28-.74,1.15-1.05,1.64-1.67.05-.06.09-.14.13-.2l-.95-1.68,2.53-1.43c-.04-.14-.11-.28-.24-.43-.17-.18-1.15-.36-1.15-.36-.29-.49.11-1.22.67-1.25.17,0,.37.03.5-.08.11-.09.12-.24.13-.39l-.23-.41-3.53,2.01-2.59-4.56,4.45-2.52-1.33-2.34-7.02,3.98,6.88,12.13c.02-.27.03-.54.13-.79Z" style="stroke-width:0px;"/><path d="m233.55,175.99l-1.33-2.34-4.45,2.52-1.33-2.35c-.55.51-1.09,1.03-1.64,1.54-.19.18-.39.37-.57.56l2.3,4.05,7.02-3.98Z" style="stroke-width:0px;"/><path d="m230.24,156.97c-.04.35-.25.73-.59.77-.17.02-.33-.05-.5-.08-.31-.05-.64.03-.92-.09-.07-.03-.13-.07-.18-.11l-2.94,1.67,1.33,2.34,2.69-1.53,7.97,14.05,2.57-1.46-7.97-14.05,2.69-1.53-1.33-2.34-2.76,1.56c-.05.26-.03.53-.06.79Z" style="stroke-width:0px;"/><path d="m241.47,166.83l2,3.53,2.7-1.53c.07-.17.15-.34.24-.51.52-.91,1.45-1.5,2.34-2.06.41-.26.83-.52,1.24-.77l-.82-1.45-4.45,2.52-2.72-4.8,3.53-2.01-1.33-2.34-3.53,2.01-2.59-4.56,4.45-2.52-1.33-2.34-7.02,3.98,5.05,8.91c1.23-.6,1.85,1.74,2.24,3.94Z" style="stroke-width:0px;"/><path d="m189.68,199.24c.42.08.67.49.98.77.13.11.26.2.41.27.19-.08.37-.15.56-.26,2.53-1.43,3.06-3.72,1.57-6.34l-.15-.26c-1.15-.03-2.31-.07-3.46-.1l1.12,1.98c.66,1.17.4,1.91-.42,2.37-.82.46-1.59.31-2.25-.86l-5.02-8.85c-.66-1.17-.4-1.91.42-2.37.82-.46,1.59-.31,2.25.86l3.4,5.99c1.04-.25,2.11-.39,3.18-.39l-3.91-6.89c-1.49-2.62-3.72-3.34-6.25-1.9-2.53,1.43-3.06,3.72-1.57,6.34l4.83,8.52c.87,1.53,2,2.39,3.28,2.57-.01-.06-.03-.12-.04-.18-.05-.63.42-1.39,1.05-1.27Z" style="stroke-width:0px;"/><path d="m224.21,152.22l7.85-4.45c-2.25.62-4.23,2.5-6.55,2.24-.43-.05-.89-.17-1.28.02-.56.27-.69,1.07-.42,1.63.1.21.25.39.41.56Z" style="stroke-width:0px;"/><path d="m204.52,163.39c-.01-.18.01-.35.1-.51.2.08.4.11.6.11l2.71-1.54c.45-.46.89-.93,1.44-1.25.5-.3,1.06-.47,1.62-.64.2-.06.4-.12.6-.18l4.98-2.82c.06-.1.12-.2.21-.27.07-.06.16-.08.25-.12-1.72-.52-3.44-1.04-5.17-1.56l-1.39.79c-.05.37-.1.73-.15,1.1-1.99,1.06-3.97,2.12-5.96,3.18-.61.33-1.24.66-1.92.73-.26.03-.51,0-.77-.02l-8.48,4.81c.07.4.18.8.34,1.17-.5-.09-.97-.29-1.39-.57l-1.74.99c1.24.82,2.46,1.67,3.65,2.55l10.46-5.93Z" style="stroke-width:0px;"/><path d="m240.81,142.8c-1.36-.77-2.73-1.53-4.09-2.3l-1.94,1.1c1.13,1.15,2.6,1.95,4.19,2.25l1.85-1.05Z" style="stroke-width:0px;"/><path d="m262.87,167.02l-15.48-27.29c-1.25-2.2-4.05-2.98-6.25-1.73l-1.86,1.06c.24.23.47.46.71.7.75.73,1.5,1.48,2.2,2.28l.94-.53c.27-.15.62-.06.78.21l15.48,27.29c.15.27.06.62-.21.78l-21.07,11.95c1.82.11,3.66-.15,5.48.06.65.07,1.3.21,1.95.35l15.62-8.86c2.2-1.25,2.98-4.05,1.73-6.25Z" style="stroke-width:0px;"/><path d="m168.02,201.74l-7.29-12.86c-.15-.27-.06-.62.21-.78l21.02-11.92c-.07-.16-.16-.31-.23-.48.3-.02.6.03.89.1l8.48-4.81c-.28-.1-.55-.2-.82-.31-1.33-.53-2.66-1.06-3.99-1.58l-3.2,1.81c1.16.71,2.32,1.42,3.47,2.13-1.2-.74-3.68-.84-5.8-.81l-21.81,12.37c-2.2,1.25-2.98,4.05-1.73,6.25l6.32,11.14c.3-.07.59-.14.88-.2.8-.14,1.61-.13,2.42-.12.39,0,.78.01,1.17.06Z" style="stroke-width:0px;"/><path d="m193.94,206.77c.36.31.76.59,1.2.77.45.19,1.05.68.7,1.03-1.62.74-3.61.19-5.21.98-.87.43-1.71,1.25-2.64,1,1.12.67,2.13,1.54,2.99,2.53l39.71-22.52c.03-.16.06-.32.08-.48.09-.53.2-1.09.57-1.48.49-.52,1.29-.56,2.01-.57.51,0,1.05.01,1.54.15l4.94-2.8c-.67-1.18-1.48-2.26-2.4-3.26l-43.49,24.67Z" style="stroke-width:0px;"/><path d="m187.52,213.38c-.83-.27-1.91-.83-2.6-1.5l-7.95,4.51c-.27.15-.62.06-.77-.21l-6.96-12.27c-.7-.16-1.4-.38-2.1-.24-.8.16-1.51,1.1-1.07,1.79.83,0,1.65.5,2.02,1.24-.44.34-.91.62-1.4.85l6.02,10.61c1.25,2.2,4.05,2.98,6.25,1.73l10.39-5.89s-.08-.05-.13-.07c-.54-.25-1.14-.36-1.7-.55Z" style="stroke-width:0px;"/></g></g><g id="Left_hand"><path d="m142.48,177.66c6.1,4.49,11.2,26.03,11.66,45.73.47,19.7,9.95,52.99,11.14,58.45,1.19,5.46.72,13.31,7.8,2.37s27.79-29.93,36.42-23.62c8.63,6.31-5.91,27.53-13.78,38.95-7.87,11.42-8.67,31.53-18.09,44.12-9.42,12.59-17.96,31.6-27.2,31.31-9.24-.29-70.41,45.11-70.41,45.11l1.2-62.15,54.96-89.99,6.29-90.27Z" style="opacity:.3; stroke-width:0px;"/><path d="m214.53,263.65c-.31,1.95-11.08,16.22-17.41,26.9s-12.26,29.27-13.85,32.04c-1.58,2.77-20.96,19.78-26.32,26.91-5.36,7.12-14.82,10.28-24.31,17.01-6.1,4.32-25.11,26.61-37.92,41.99-7.12,8.55-12.33,14.97-12.33,14.97L.5,402.11s6.78-5.59,15.7-13.13c.01,0,.03-.01.06-.04.02-.02.05-.04.09-.07,14.68-12.41,35.09-29.98,40.73-36.61,9.09-10.68,21.75-23.34,21.75-23.34-.77-14.83.8-28.88-.59-34.22-.72-2.79-2.01-18.66-2.97-23.54-2.43-12.47-13-25.39-14.19-30.48-1.18-5.09-15.17-26.82-8.36-30.83,1.42-.84,2.81-1.1,4.16-.91,9.2,1.27,16.78,23.49,21.98,29.15,1.65,1.79,3.86,5.04,6.06,8.52,4.12,6.53,8.16,13.87,8.16,13.87,1.58-6.33-9.89-28.88-13.06-50.24-3.16-21.36-12.26-32.83,0-34.15,1.08-.12,2.09-.02,3.04.26,8.63,2.52,12.37,20.45,17.53,37.85.48,1.6,4.41,13.09,7.47,21.95t.01.02c1.99,5.8,3.6,10.47,3.6,10.47.39-10.88-2.97-20.97-3.56-30.86-.24-3.95,1.02-19.78-.56-35.6-1.34-13.35-.73-18.76,4.49-19.81.96-.2,2.09-.24,3.39-.16,9.05.57,12.26,24.62,12.26,34.01,0,5.45.93,16.09,1.71,24.07.57,5.77,1.06,10.15,1.06,10.15,0,0,1.58-13.25.4-41.83-.27-6.26.14-10.74,2.6-12.55,1.35-.98,3.3-1.17,6.1-.41,7.91,2.14,10.48,31.45,10.48,42.53s6.33,30.06,7.52,45.02c1.19,14.95,6.37,33.3,6.37,33.3,0,0,2.93,1.19,4.9.8,1.98-.4,15.63-20.57,15.63-20.57,6.36-13.81,18.74-17.98,25.48-16.45,3.11.7,5.03,2.62,4.59,5.37Z" style="fill:#fff; stroke-width:0px;"/><path d="m214.53,263.65c-.31,1.95-11.08,16.22-17.41,26.9s-12.26,29.27-13.85,32.04c-1.58,2.77-20.96,19.78-26.32,26.91-5.36,7.12-14.82,10.28-24.31,17.01-6.1,4.32-25.11,26.61-37.92,41.99,1.41-5.58,4.57-12.71,12.83-19.56,14.34-11.91,15.2-21.25,22.91-29.16s21.29-5.54,26.17-15.03c4.89-9.5,21.9-18.2,25.46-26.51s-3.56-10.07,2.77-20.07c6.33-9.99,12.47-12.43,11.57-16.35-.89-3.93-3.56-9.86,1.93-14.81,3.43-3.08,7.46-6.95,11.58-8.73,3.11.7,5.03,2.62,4.59,5.37Z" style="fill:#83d0f5; opacity:.4; stroke-width:0px;"/><path d="m111.93,310.59c-2.63-1.32-.52-3.95-2.37-6.14-1.85-2.18-6.07,11.95-7.05,12.01-.99.07-3.76-7.19-4.88-7.91-1.13-.73-1.78,2.31-3.37,7.91-1.58,5.61-7.38,8.38-10.77,12.46-3.38,4.09-23.78,25.72-28.79,33.89-4.93,8.05-35.95,24.34-38.35,26.06,14.68-12.41,35.09-29.98,40.73-36.61,9.09-10.68,21.75-23.34,21.75-23.34-.77-14.83.8-28.88-.59-34.22-.72-2.79-2.01-18.66-2.97-23.54-2.43-12.47-13-25.39-14.19-30.48-1.18-5.09-15.17-26.82-8.36-30.83,1.42-.84,2.81-1.1,4.16-.91-1.55,1.1-3.06,2.68-1.65,4.97,2.51,4.06,5.27,8.33,5.27,12.82s7.65,10.81,10.62,14.96c2.97,4.16.2,2.71,2.18,8.45,1.97,5.75,4.35,4.54,5.53,10.34,1.19,5.81,7.78,9.5,6.73,16.73-1.06,7.23,3.16,17.29,3.16,17.29,0,0,3.43-9.75,2.18-15.03-1.25-5.27.2-11.87-.96-13.65-1.04-1.6-3.74-12.46-5.02-19.21,4.12,6.53,8.16,13.87,8.16,13.87,1.58-6.33-9.89-28.88-13.06-50.24-3.16-21.36-12.26-32.83,0-34.15,1.08-.12,2.09-.02,3.04.26,5.23,9.77,1.59,17.04.43,21.24-1.27,4.62,6.29,16.48,7.41,24.65,1.04,7.63,3.06,6.84,3.33,6.7-.23.21-2.18,2.2-1.02,7.86,1.23,6.02,10.02,20.25,10.02,24.23s-.72,10.53-.72,12.47,7.05,14.92,7.84,18.32-.33-6.55,1.58-9.97c1.92-3.43,2.92-15.49,3.17-14.84,3.23,8.47-.53,44.9-3.17,43.58Z" style="fill:#83d0f5; opacity:.4; stroke-width:0px;"/><path d="m117.6,221.23c-2.24,3.39-2.18,29.85-6.03,29.94-1.85.04-2.75-6.65-3.5-15,1.99,5.8,3.6,10.47,3.6,10.47.39-10.88-2.97-20.97-3.56-30.86-.24-3.95,1.02-19.78-.56-35.6-1.34-13.35-.73-18.76,4.49-19.81,1.1,3.56,3.8,7.76,4.49,11.66.94,5.38-.9,9.83-2.48,10.5-1.59.68-1.85,4.14.13,4.65,1.97.51-.05,25.76.92,29.04.96,3.27,4.75,1.62,2.5,5.01Z" style="fill:#83d0f5; opacity:.4; stroke-width:0px;"/><path d="m138.15,191.61c-4.11,1.81-4.33,5.05-5.56,9.7s1.76,11.44,0,22.11,4.66,17.55,0,29.49-2.47-9.96-3.25-20c-.32-4.11-.2-9.57.06-14.62.57,5.77,1.06,10.15,1.06,10.15,0,0,1.58-13.25.4-41.83-.27-6.26.14-10.74,2.6-12.55,4.22,3.79,8.19,16.01,4.69,17.55Z" style="fill:#83d0f5; opacity:.4; stroke-width:0px;"/><path d="m82.39,423.47s40.75-50.24,50.24-56.97,18.95-9.88,24.31-17.01,24.74-24.13,26.33-26.9c1.58-2.77,7.52-21.36,13.85-32.04,6.33-10.68,17.1-24.95,17.41-26.9,1.38-8.7-20.77-9.1-30.07,11.08,0,0-13.65,20.18-15.63,20.57s-4.9-.79-4.9-.79c0,0-5.19-18.35-6.37-33.31-1.19-14.96-7.52-33.95-7.52-45.02s-2.57-40.38-10.48-42.53c-7.91-2.14-9.11,3.28-8.7,12.96,1.19,28.58-.4,41.83-.4,41.83,0,0-2.77-24.83-2.77-34.22s-3.21-33.44-12.26-34.01c-8.31-.53-9.46,4.14-7.88,19.97s.33,31.66.56,35.6c.59,9.89,3.96,19.98,3.56,30.86,0,0-10.29-29.78-11.08-32.44-5.73-19.31-9.71-39.27-20.57-38.11-12.26,1.32-3.16,12.79,0,34.15,3.16,21.36,14.64,43.91,13.05,50.24,0,0-9.49-17.23-14.22-22.39-5.96-6.49-15.05-34.78-26.13-28.25-6.82,4.02,7.17,25.74,8.36,30.83s11.76,18.02,14.19,30.49c.95,4.88,2.24,20.75,2.97,23.54,1.38,5.34-.18,19.39.59,34.22,0,0-12.66,12.66-21.76,23.34-9.1,10.68-56.57,49.85-56.57,49.85" style="fill:none; stroke:#263238; stroke-linecap:round; stroke-linejoin:round;"/><path d="m163.93,294.5s3.01,6.13,0,14.05" style="fill:none; stroke:#263238; stroke-linecap:round; stroke-linejoin:round;"/><path d="m167.26,295.34s3.94,2.72,2.36,7.47" style="fill:none; stroke:#263238; stroke-linecap:round; stroke-linejoin:round;"/><path d="m130.46,228.43s3.16,22.35,1.78,26.51" style="fill:none; stroke:#263238; stroke-linecap:round; stroke-linejoin:round;"/><path d="m111.66,246.63s.59,3.36,0,6.53" style="fill:none; stroke:#263238; stroke-linecap:round; stroke-linejoin:round;"/><path d="m93.07,260.48s.59,3.36,0,4.15" style="fill:none; stroke:#263238; stroke-linecap:round; stroke-linejoin:round;"/><path d="m193.36,279.47s3.58,1.94,4.75,4.75" style="fill:none; stroke:#263238; stroke-linecap:round; stroke-linejoin:round;"/><path d="m111.8,186.6s3.63,1.08,6.59-1.79" style="fill:none; stroke:#263238; stroke-linecap:round; stroke-linejoin:round;"/><path d="m113.05,218.74s7.12,2.37,9.69,0" style="fill:none; stroke:#263238; stroke-linecap:round; stroke-linejoin:round;"/><path d="m136.19,225.67s4.75-1.78,7.91-.79" style="fill:none; stroke:#263238; stroke-linecap:round; stroke-linejoin:round;"/><path d="m90.9,231.99s3.76-4.95,6.73-3.56" style="fill:none; stroke:#263238; stroke-linecap:round; stroke-linejoin:round;"/><path d="m75.47,246.63s-3.36,1.58-4.35,3.26" style="fill:none; stroke:#263238; stroke-linecap:round; stroke-linejoin:round;"/><path d="m78.83,328.92s1.58-1.78,2.18-2.97-.2-13.85,0-21.96" style="fill:none; stroke:#263238; stroke-linecap:round; stroke-linejoin:round;"/><path d="m120.33,378.73c-4.67,5.22-18.95,14.67-24.69,20.41" style="fill:none; stroke:#263238; stroke-linecap:round; stroke-linejoin:round;"/><path d="m139.16,260.48c-2.37,6.73.2,15.23,0,18.99-.2,3.76-1.01,20.97-1.01,20.97" style="fill:none; stroke:#263238; stroke-linecap:round; stroke-linejoin:round;"/><path d="m117.6,260.48c-3.16,5.34-2.18,12.46-1.19,16.02.99,3.56.11,18,.11,18" style="fill:none; stroke:#263238; stroke-linecap:round; stroke-linejoin:round;"/><path d="m83.58,277.49c-.59,5.34,1.98,10.09,1.98,10.09" style="fill:none; stroke:#263238; stroke-linecap:round; stroke-linejoin:round;"/><path d="m103.16,267.01c-1.78,6.53.59,9.49.79,10.48" style="fill:none; stroke:#263238; stroke-linecap:round; stroke-linejoin:round;"/></g><g id="Right_hand"><path d="m263.82,223.87l-3.37-19.56c-.63-3.67,1.92-7.12,5.61-7.6l7.55-.97s-2.52-5.11,5.59-20.03c8.11-14.92,47.1-54.44,76.66,12,29.56,66.44,56.57,201.83,56.57,201.83,0,0-79.79-92.89-82.33-97.65-2.54-4.76-26.83-1.92-32.44-14.68-5.61-12.77-17.39-49.2-17.39-49.2l-9.13,1.24c-3.49.48-6.73-1.9-7.33-5.37Z" style="opacity:.3; stroke-width:0px;"/><path d="m334.15,179.01l-15.31,2.78-21.28,3.87-27.87,5.07c-2.25.41-4.4-1.08-4.81-3.33l-6.12-33.65c-.4-2.25,1.09-4.4,3.33-4.81l16.21-2.95,23.58-4.28,24.67-4.49c2.25-.41,4.4,1.08,4.81,3.33l6.12,33.65c.41,2.25-1.08,4.4-3.33,4.81Z" style="fill:#80cff5;"/><g style="clip-path:url(#clippath);"><path d="m323.32,156.67l-4.48,25.12-21.28,3.87c-6.16-2.71-16.32-7.43-18.35-9.95-2.42-2.99-2.08-20.68-.91-29.72l23.58-4.28c8.31,5.68,21.44,14.96,21.44,14.96Z" style="opacity:.3; stroke-width:0px;"/><path d="m273.92,189.96l-4.23.77c-2.25.41-4.4-1.08-4.81-3.33l-6.12-33.65c-.4-2.25,1.09-4.4,3.33-4.81l4.22-.77c-2.24.42-3.73,2.56-3.32,4.81l6.12,33.65c.41,2.25,2.56,3.74,4.81,3.33Z" style="opacity:.3; stroke-width:0px;"/></g><path d="m334.15,179.01l-15.31,2.78-21.28,3.87-27.87,5.07c-2.25.41-4.4-1.08-4.81-3.33l-6.12-33.65c-.4-2.25,1.09-4.4,3.33-4.81l16.21-2.95,23.58-4.28,24.67-4.49c2.25-.41,4.4,1.08,4.81,3.33l6.12,33.65c.41,2.25-1.08,4.4-3.33,4.81Z" style="fill:none; stroke:#000; stroke-linecap:round; stroke-linejoin:round;"/><path d="m269.59,141.97h65.52c2.28,0,4.14,1.85,4.14,4.14v34.2c0,2.28-1.85,4.14-4.14,4.14h-65.52c-2.28,0-4.14-1.85-4.14-4.14v-34.2c0-2.28,1.85-4.14,4.14-4.14Z" transform="translate(-24.32 56.71) rotate(-10.3)" style="fill:none; stroke:#000; stroke-linecap:round; stroke-linejoin:round;"/><rect x="268.19" y="144.61" width="65.49" height="37.7" rx="2" ry="2" transform="translate(-24.38 56.46) rotate(-10.3)" style="fill:none; stroke:#000; stroke-linecap:round; stroke-linejoin:round;"/><path d="m338.38,178.24l-4.2.76c2.23-.42,3.71-2.56,3.3-4.8l-6.12-33.65c-.41-2.25-2.56-3.74-4.81-3.33l4.23-.77c2.25-.4,4.4,1.09,4.81,3.33l6.12,33.65c.4,2.25-1.09,4.4-3.33,4.81Z" style="fill:none; stroke:#263238; stroke-linecap:round; stroke-linejoin:round;"/><path d="m460.04,286.03l-41.44,111.08s-17.32-32.96-33.32-63.54c-12.78-24.42-24.72-47.32-26.33-50.69-3.61-7.59-15.9-23.49-15.9-23.49,0,0-12.65-7.24-18.44-19.85-5.78-12.62-12.16-57.72-12.16-57.72,0,0-16.63-6.26-20.6-9.02-3.98-2.75-7.59-28.06-7.59-30.95s3.97-8.68,3.97-8.68c0,0-.89-4.24,4.19-8.52,1.35-1.14,3.13-2.29,5.47-3.35.03-.02.07-.03.1-.05,0,0-.66-9.57,4.32-12.36.23-.13.48-.25.74-.35,4.44-1.71,18.98-3.92,18.98-3.92,0,0,3.44-3.09,7.05-4.07,2.58-.71,16.74,2.58,24.65,4.53,3.18.78,5.35,1.34,5.35,1.34,0,0,13.38.61,15.91,2.12,2.03,1.21,4.07,3.31,4.8,4.09,0,.01.01.01.01.01.15.18.25.29.25.29,0,0,11.93,2.48,14.46,6.85,2.53,4.36,3.61,26.05,1.81,40.14-1.81,14.1,1.43,38,1.43,38,0,0,3.73,18.47,6.62,25.48,2.89,7.01,55.67,62.63,55.67,62.63Z" style="fill:#fff; stroke-width:0px;"/><path d="m385.28,333.57c-12.78-24.42-24.72-47.32-26.33-50.69-3.61-7.59-15.9-23.49-15.9-23.49,0,0-12.65-7.24-18.44-19.85-5.78-12.62-12.16-57.72-12.16-57.72,0,0-16.63-6.26-20.6-9.02-3.98-2.75-7.59-28.06-7.59-30.95s3.97-8.68,3.97-8.68c0,0-.89-4.24,4.19-8.52.01,1.14.02,3.06-.04,6.08-.12,5.73,6.63,40.28,8.3,39.23,1.67-1.06,4.25-3.58,3.57-5.81,0,0-3.27-13.41-6.36-42.85.03-.02.07-.03.1-.05,0,0-.66-9.57,4.32-12.36-.89,2.41-1.59,4.82-1.63,6.49-.11,4.66,5.43,44.59,7.6,45.6,2.18,1,7.67-4.31,7.67-4.31,0,0-1.88-11.33-1.21-16.16,0,0,16.73,10.2,17.23,21.78.05,1.27,3.26,19.42,3.26,19.42,0,0-14.39,27.4.3,52.4,0,0-7.47-4.48-9.25-11.6,0,0-2.17,20.94,13.26,32.03,0,0,11.07-10.87,21.95-12.25,0,0,.2.72-7.12,6.49-7.32,5.77-8.31,8.34-8.31,8.34,0,0,7.92-7.98,14.25-8.34,0,0-6.53,7.55-6.33,9.13.19,1.58,18.67,33.16,25.39,55.19,2.82,9.24,4.69,15.88,5.91,20.47Z" style="fill:#83d0f5; opacity:.4; stroke-width:0px;"/><path d="m333.41,123.99s5.33,3.95,6.91,0c1.58-3.95,1.72-6.72,1.72-6.72,0,0,2.04-.95,4.02,3.98,1.98,4.92,21.5,6.19,26.08,8.72s6.4,0,6.4,0c0,0,3.72,2.84,1.5,7.43-2.22,4.59,4.07,4.99,6.51,1.63,2.43-3.36.55,9.67-5.48,10.96,0,0,.18,5.7-3.7,9.61h3.29s-8.76,6.94-11.09,7.32,8.68,4.27,6.63,5.1c-2.04.82-7.82.75-7.82.75,0,0,3.74,2.59,3.77,4.3.03,1.71-1.77,3-2.58,1.57s-7.27-21.91-10.48-29.48-16.55-13.52-25.67-25.18Z" style="fill:#83d0f5; opacity:.4; stroke-width:0px;"/><path d="m379.79,112.63c-11.22-3.07-26.27-7.44-26.27-7.44,0,0,.07-.04.21-.11,3.18.78,5.35,1.34,5.35,1.34,0,0,13.38.61,15.91,2.12,2.03,1.21,4.07,3.31,4.8,4.09Z" style="fill:#83d0f5; opacity:.4; stroke-width:0px;"/><path d="m363.96,130.28c-9.76-1.99-16.74,6.34-16.74,6.34,0,0,9.71,8.78,11.86,12.55,2.16,3.79,5.72,16.47,5.72,16.47,4.09.66,11.64-3.55,13.44-14.76s-4.52-18.62-14.28-20.6Z" style="fill:#83d0f5; stroke-width:0px;"/><path d="m418.59,397.1s-56.03-106.64-59.64-114.23c-3.61-7.59-15.91-23.49-15.91-23.49,0,0-12.65-7.23-18.44-19.85-5.78-12.62-12.16-57.72-12.16-57.72,0,0-16.63-6.26-20.6-9.01s-7.59-28.06-7.59-30.95,3.98-8.68,3.98-8.68c0,0-1.45-6.86,9.76-11.92,0,0-.72-10.49,5.06-12.72,4.44-1.71,18.98-3.92,18.98-3.92,0,0,3.43-3.08,7.05-4.07,3.61-.99,30,5.88,30,5.88,0,0,13.37.61,15.91,2.11,2.53,1.5,5.06,4.4,5.06,4.4,0,0,11.93,2.48,14.46,6.84,2.53,4.36,3.61,26.05,1.81,40.15s1.43,38,1.43,38c0,0,3.73,18.46,6.62,25.48,2.89,7.01,55.67,62.63,55.67,62.63" style="fill:none; stroke:#263238; stroke-linecap:round; stroke-linejoin:round;"/><path d="m371.19,180.34s-2.53-.54-5.78-12.47c-3.25-11.93-4.11-17.51-10.84-24.58-4.78-5.03-15.72-13.16-21.15-19.3-5.42-6.14-11.39-11.06-16.09-7.31-3.75,2.99-6.18,10.8-2.89,22.81,4.23,15.44,17.53,22.79,17.53,22.79l3.26,19.43s-14.15,28.34,1.81,55.09" style="fill:none; stroke:#263238; stroke-linecap:round; stroke-linejoin:round;"/><path d="m347.22,136.61s6.98-8.32,16.74-6.34c9.76,1.99,16.09,9.4,14.28,20.6s-9.35,15.42-13.44,14.76" style="fill:none; stroke:#263238; stroke-linecap:round; stroke-linejoin:round;"/><path d="m322.03,104.61s-1.67,3.73-3.36,11.36" style="fill:none; stroke:#263238; stroke-linecap:round; stroke-linejoin:round;"/><path d="m316.09,143.78s.84,12.35,2.57,16.14,4.63,6.87,5.89,11.75c1.27,4.88,1.45,12.47,1.81,13.56.36,1.08,2.46,1.38,2.46,1.38,2.97.07,4.2-1.49,5.93-3.87" style="fill:none; stroke:#263238; stroke-linecap:round; stroke-linejoin:round;"/><path d="m297.99,121.25s2.71,26.38,4.88,37.59c2.17,11.21,5.96,12.83,12.29,16.45,6.33,3.61,9.76,11.03,10.3,12.11.54,1.08,2.61,1.23,2.61,1.23,1.91.04,4.97-1.72,5.83-3.81" style="fill:none; stroke:#263238; stroke-linecap:round; stroke-linejoin:round;"/><path d="m288.23,133.17c-.68,1.04,5.11,27.83,8.13,35.61,3.02,7.77,3.37,9.03,11.35,11.2,7.99,2.17,14.06,5.86,16.22,4.57" style="fill:none; stroke:#263238; stroke-linecap:round; stroke-linejoin:round;"/><path d="m343.72,118.35s4.15,9.94,1.41,16.47" style="fill:none; stroke:#263238; stroke-linecap:round; stroke-linejoin:round;"/><path d="m359.08,106.42s10.66,4.34,20.97,6.51" style="fill:none; stroke:#263238; stroke-linecap:round; stroke-linejoin:round;"/><path d="m386.55,140.76s-3.18,5.82-8.01,7.07" style="fill:none; stroke:#263238; stroke-linecap:round; stroke-linejoin:round;"/><path d="m378.55,134.43s-1.14,2.96-2.35,3.83" style="fill:none; stroke:#263238; stroke-linecap:round; stroke-linejoin:round;"/><path d="m382.55,158.29s-7.23,5.47-14.18,6.89" style="fill:none; stroke:#263238; stroke-linecap:round; stroke-linejoin:round;"/><path d="m365.4,167.87s2.96,3.8,10.79,4.16" style="fill:none; stroke:#263238; stroke-linecap:round; stroke-linejoin:round;"/><path d="m342.04,151.29s7.08-6.79,11.12-5.86" style="fill:none; stroke:#263238; stroke-linecap:round; stroke-linejoin:round;"/><path d="m355.86,152.68s-5.35,4.03-6.34,3.99" style="fill:none; stroke:#263238; stroke-linecap:round; stroke-linejoin:round;"/><path d="m300.68,173.84s1.78.33,3.16-1.81" style="fill:none; stroke:#263238; stroke-linecap:round; stroke-linejoin:round;"/><path d="m307.01,164.15s4.3-2.67,7.11-3.18" style="fill:none; stroke:#263238; stroke-linecap:round; stroke-linejoin:round;"/><path d="m344.89,254.35c.89-.79,9.19-7.52,14.34-9.89" style="fill:none; stroke:#263238; stroke-linecap:round; stroke-linejoin:round;"/><path d="m355.66,251.17c-.59-.18-5.31,4.76-7.8,6.74" style="fill:none; stroke:#263238; stroke-linecap:round; stroke-linejoin:round;"/><path d="m358.04,265.82s15.82,29.97,19.38,41.99" style="fill:none; stroke:#263238; stroke-linecap:round; stroke-linejoin:round;"/><path d="m404.36,223.39c1.35,7.37,5.7,12.8,8.07,15.74" style="fill:none; stroke:#263238; stroke-linecap:round; stroke-linejoin:round;"/><path d="m354.47,133.17c-2.31,1.41.12,6.06,1.4,8.43,1.27,2.37,7.01,6.13,8.2,9.69,1.19,3.56,8.7,3.46,10.98,0,2.27-3.46,2-10.37-4.24-15.63-6.24-5.25-13.07-4.5-16.33-2.5Z" style="fill:#fff; opacity:.4; stroke-width:0px;"/></g><g id="Speech_bubble"><path d="m310.55,332.46c-24.88-4.23-48.48,12.5-52.71,37.38-3.03,17.79,4.67,34.93,18.39,44.8" style="fill:none; stroke:#263238; stroke-linecap:round; stroke-linejoin:round;"/><path d="m329.61,340.42c-4.16-3-8.88-5.34-14.02-6.82" style="fill:none; stroke:#263238; stroke-linecap:round; stroke-linejoin:round;"/><path d="m325.02,417.46c11.72-6.5,20.49-18.06,22.91-32.3,2.56-15.05-2.55-29.63-12.49-39.74" style="fill:none; stroke:#263238; stroke-linecap:round; stroke-linejoin:round;"/><polyline points="327.21 431.88 329.94 434.29 325.69 419.76" style="fill:none; stroke:#263238; stroke-linecap:round; stroke-linejoin:round;"/><path d="m295.22,422.54c6.96,1.18,13.82.73,20.18-1.09l8.61,7.6" style="fill:none; stroke:#263238; stroke-linecap:round; stroke-linejoin:round;"/><path d="m284.74,419.45c1.69.73,3.44,1.36,5.24,1.89" style="fill:none; stroke:#263238; stroke-linecap:round; stroke-linejoin:round;"/><path d="m306.49,355.28c12.52,2.13,20.94,14.01,18.81,26.53-2.13,12.52-14.01,20.94-26.53,18.81-12.52-2.13-20.94-14.01-18.81-26.53,1.66-9.74,9.22-17,18.39-18.74" style="fill:none; stroke:#263238; stroke-linecap:round; stroke-linejoin:round;"/><path d="m298.36,403.06c-13.87-2.36-23.2-15.52-20.84-29.39" style="fill:none; stroke:#263238; stroke-linecap:round; stroke-linejoin:round;"/><path d="m326.6,386.6c-3.2,8.9-11.1,15.23-20.29,16.56" style="fill:none; stroke:#263238; stroke-linecap:round; stroke-linejoin:round;"/><path d="m279.48,367.32c4.69-10.23,15.81-16.46,27.43-14.48,13.87,2.36,23.2,15.52,20.84,29.39" style="fill:none; stroke:#263238; stroke-linecap:round; stroke-linejoin:round;"/><line x1="317.92" y1="368.77" x2="318.21" y2="368.45" style="fill:none; stroke:#263238; stroke-linecap:round; stroke-linejoin:round; stroke-width:2px;"/><line x1="313.84" y1="373.17" x2="315.87" y2="370.98" style="fill:none; stroke:#263238; stroke-linecap:round; stroke-linejoin:round; stroke-width:2px;"/><polyline points="288.94 376.39 298.75 389.43 312.06 375.09" style="fill:none; stroke:#263238; stroke-linecap:round; stroke-linejoin:round; stroke-width:2px;"/></g></svg>